<svg id="Layer_3" enable-background="new 0 0 64 64" height="512" viewBox="0 0 64 64" width="512" xmlns="http://www.w3.org/2000/svg"><g><path d="m58 47h-52c-2.209 0-4-1.791-4-4v-37c0-2.209 1.791-4 4-4h52c2.209 0 4 1.791 4 4v37c0 2.209-1.791 4-4 4z" fill="#c1c8d1"/><path d="m6 35v-28c0-.552.448-1 1-1h50c.552 0 1 .448 1 1v28" fill="#c7e2fc"/><path d="m36.704 14.5c0-2.97-.483-5.825-1.363-8.5h-28.341c-.552 0-1 .448-1 1v28h21.365c5.72-4.985 9.339-12.317 9.339-20.5z" fill="#ebf7fe"/><path d="m47 62h-30v-2c0-2.209 1.791-4 4-4h22c2.209 0 4 1.791 4 4z" fill="#a8b0bc"/><path d="m62 35v8c0 2.209-1.791 4-4 4h-52c-2.209 0-4-1.791-4-4v-8z" fill="#a8b0bc"/><circle cx="32" cy="41" fill="#243242" r="2"/><path d="m25.929 56.002c.681-1.177 1.071-2.544 1.071-4.002 0-1.933-.686-3.706-1.827-5.089h13.718c-1.099 1.37-1.891 3.197-1.891 5.089 0 1.458.39 2.824 1.071 4.001z" fill="#758190"/><path d="m17 24-2 2 3 3 2-2 2 1v2h4v-2l2-1 2 2 3-3-2-2 1-2h2v-4h-2l-1-2 2-2-3-3-2 2-2-1v-2h-4v2l-2 1-2-2-3 3 2 2-1 2h-2v4h2z" fill="#808080"/><circle cx="24" cy="20" fill="#ebf7fe" r="4"/><path d="m58 22h-9.354c-.71 2.021-2.463 3.586-4.591 3.924-2.569.408-4.89-.875-6.055-2.924h.001 1.999c1.657 0 3-1.343 3-3s-1.343-3-3-3h-1.999l-.001-.001c1.019-1.793 2.924-2.999 5.105-2.999 2.566 0 4.743 1.671 5.553 4h9.342" fill="#999"/></g></svg>