<svg id="Capa_1" enable-background="new 0 0 512 512" height="512" viewBox="0 0 512 512" width="512" xmlns="http://www.w3.org/2000/svg"><g><g><g><path d="m170.425 253.126-22.19 22.2-96.445 96.435c-11.847 11.847-31.05 11.847-42.897 0-11.857-11.847-11.857-31.05 0-42.897l96.435-96.445 22.2-22.2z" fill="#aa8080"/><path d="m19.862 378.772c-4.01-1.459-7.763-3.805-10.974-7.015-11.846-11.846-11.846-31.052 0-42.898l118.639-118.639 17.989 17.989-118.639 118.639c-8.636 8.636-10.974 21.178-7.015 31.924z" fill="#9d6b6b"/><path d="m122.183 212.435h31.392v60.676h-31.392z" fill="#9d6b6b" transform="matrix(.707 -.707 .707 .707 -131.3 168.664)"/><path d="m162.834 274.858-57.041-57.041c-7.674-7.674-7.674-20.116 0-27.789 7.674-7.674 20.116-7.674 27.789 0l43.895 13.146 13.146 43.895c7.674 7.674 7.674 20.116 0 27.789-7.674 7.674-20.115 7.674-27.789 0z" fill="#aa8080"/><path d="m133.597 245.614-27.797-27.797c-7.675-7.675-7.682-20.115-.007-27.79 3.834-3.834 8.862-5.754 13.898-5.762 5.029 0 10.057 1.92 13.898 5.762l27.797 27.797c-3.841-3.841-8.87-5.762-13.899-5.762-5.036.007-10.065 1.928-13.898 5.762-7.674 7.675-7.667 20.115.008 27.79z" fill="#9d6b6b"/><path d="m107.863 97.316h208.911v142.032h-208.911z" fill="#aa8080" transform="matrix(.707 .707 -.707 .707 181.215 -100.829)"/><path d="m253.224 157.526h38.611v142.032h-38.611z" fill="#9d6b6b" transform="matrix(.707 .707 -.707 .707 241.426 -125.769)"/><path d="m73.021 181.431h208.911v43.485h-208.911z" fill="#9d6b6b" transform="matrix(.707 .707 -.707 .707 195.647 -65.987)"/><path d="m63.377 157.85c-10.501-10.501-10.501-27.527 0-38.028l100.432-100.431c10.501-10.501 27.527-10.501 38.028 0 10.501 10.501 10.501 27.527 0 38.028l-100.432 100.431c-10.501 10.501-27.527 10.501-38.028 0z" fill="#aa8080"/><path d="m146.255 113.003-44.855 44.855c-10.497 10.497-27.518 10.497-38.023-.008-10.497-10.497-10.504-27.526-.007-38.023l44.855-44.855c-10.497 10.497-10.497 27.533 0 38.03 10.504 10.505 27.533 10.498 38.03.001z" fill="#9d6b6b"/><path d="m222.8 317.273c-10.501-10.501-10.501-27.527 0-38.028l100.432-100.432c10.501-10.501 27.527-10.501 38.028 0 10.501 10.501 10.501 27.527 0 38.028l-100.432 100.432c-10.501 10.501-27.527 10.501-38.028 0z" fill="#aa8080"/><path d="m305.678 272.426-44.855 44.855c-10.497 10.497-27.518 10.497-38.023-.008-10.497-10.497-10.504-27.526-.007-38.023l44.855-44.855c-10.497 10.497-10.497 27.533 0 38.03 10.504 10.505 27.533 10.498 38.03.001z" fill="#9d6b6b"/></g><path d="m455.068 397.815h-191.721c-12.863 0-23.291 10.428-23.291 23.291v42.247h238.303v-42.247c0-12.863-10.428-23.291-23.291-23.291z" fill="#f9ef63"/><path d="m314.365 397.812c-12.865 0-23.294 10.429-23.294 23.294v42.245h-51.015v-42.245c0-12.865 10.429-23.294 23.284-23.294z" fill="#ffd064"/><path d="m482.402 441.29h-246.39c-16.346 0-29.598 13.251-29.598 29.598 0 16.346 13.251 29.598 29.598 29.598h246.39c16.346 0 29.598-13.251 29.598-29.598 0-16.347-13.251-29.598-29.598-29.598z" fill="#aa8080"/><path d="m286.788 491.818c5.349 5.36 12.751 8.667 20.93 8.667h-71.707c-8.169 0-15.571-3.307-20.93-8.667-5.36-5.36-8.667-12.761-8.667-20.93 0-16.338 13.249-29.597 29.597-29.597h71.707c-16.348 0-29.607 13.259-29.607 29.597.001 8.168 3.318 15.57 8.677 20.93z" fill="#9d6b6b"/><g fill="#dce6fd"><path d="m368.71 286.136 1.84.487c6.489 1.718 13.2-1.882 15.357-8.239l6.637-19.551c2.377-7.003-1.674-14.554-8.823-16.447l-4.572-1.21c-7.149-1.892-14.406 2.666-15.805 9.928l-3.905 20.274c-1.269 6.591 2.782 13.04 9.271 14.758z"/><path d="m410.378 310.443 1.35 1.342c4.761 4.732 12.373 4.97 17.419.544l15.523-13.613c5.56-4.876 5.828-13.441.582-18.655l-3.354-3.334c-5.245-5.213-13.809-4.894-18.651.696l-13.519 15.605c-4.395 5.073-4.111 12.683.65 17.415z"/><path d="m435.871 351.426.498 1.837c1.757 6.478 8.23 10.49 14.814 9.181l20.25-4.028c7.253-1.443 11.768-8.727 9.832-15.864l-1.238-4.564c-1.936-7.138-9.512-11.143-16.5-8.723l-19.51 6.755c-6.344 2.196-9.903 8.928-8.146 15.406z"/></g></g><path d="m433.615 164.046c-7.626 0-15.02-2.97-20.553-8.376l-45-43.978c-11.617-11.352-11.829-29.971-.478-41.587s29.971-11.83 41.587-.478l17.557 17.158 30.207-53.881c7.942-14.167 25.867-19.212 40.033-11.271 14.167 7.942 19.213 25.866 11.271 40.034l-48.971 87.352c-4.473 7.98-12.407 13.424-21.462 14.727-1.398.201-2.799.3-4.191.3z" fill="#b3e59f"/><g fill="#95d6a4"><path d="m447.88 106.897 41.482-73.993c2.371-4.229 5.644-7.625 9.429-10.125-.596-.394-1.189-.791-1.822-1.146-14.166-7.941-32.091-2.896-40.033 11.271l-30.207 53.881z"/><path d="m445.489 155.67-45-43.978c-11.617-11.352-11.829-29.971-.478-41.587 1.489-1.523 3.108-2.839 4.815-3.97-11.532-7.639-27.218-6.288-37.242 3.97-11.351 11.616-11.139 30.235.478 41.587l45 43.978c5.533 5.407 12.927 8.376 20.553 8.376 1.393 0 2.793-.099 4.192-.3 4.355-.627 8.445-2.22 12.021-4.584-1.54-1.017-2.996-2.18-4.339-3.492z"/></g></g></svg>